<mxfile host="65bd71144e">
    <diagram id="hW3m7H4EnIQ0EyOID9KO" name="Page-1">
        <mxGraphModel dx="1735" dy="1240" grid="1" gridSize="10" guides="1" tooltips="1" connect="1" arrows="1" fold="1" page="1" pageScale="1" pageWidth="850" pageHeight="1100" background="#ffffff" math="0" shadow="0">
            <root>
                <mxCell id="0"/>
                <mxCell id="1" parent="0"/>
                <mxCell id="2" value="return: &lt;br style=&quot;font-size: 15px;&quot;&gt;elements" style="ellipse;whiteSpace=wrap;html=1;fillColor=#B3B3B3;fontColor=#000000;strokeColor=#000000;fontSize=15;fontFamily=Garamond;dashed=1;dashPattern=1 4;" parent="1" vertex="1">
                    <mxGeometry x="840" y="70" width="120" height="80" as="geometry"/>
                </mxCell>
                <mxCell id="5" value="" style="edgeStyle=none;html=1;fontFamily=Garamond;fontSize=15;" parent="1" source="3" target="4" edge="1">
                    <mxGeometry relative="1" as="geometry"/>
                </mxCell>
                <mxCell id="6" style="edgeStyle=none;html=1;entryX=0.5;entryY=0;entryDx=0;entryDy=0;fillColor=#b1ddf0;strokeColor=#000000;fontFamily=Garamond;fontSize=15;" parent="1" source="3" target="4" edge="1">
                    <mxGeometry relative="1" as="geometry">
                        <mxPoint x="385" y="170" as="targetPoint"/>
                    </mxGeometry>
                </mxCell>
                <mxCell id="3" value="input: &lt;br style=&quot;font-size: 15px;&quot;&gt;file_path" style="ellipse;whiteSpace=wrap;html=1;fillColor=#B3B3B3;fontColor=#000000;strokeColor=#000000;fontSize=15;fontFamily=Garamond;dashed=1;dashPattern=1 4;" parent="1" vertex="1">
                    <mxGeometry x="325" width="120" height="80" as="geometry"/>
                </mxCell>
                <mxCell id="83" value="" style="edgeStyle=none;html=1;fontSize=15;strokeColor=#000000;fontFamily=Garamond;" parent="1" source="4" target="82" edge="1">
                    <mxGeometry relative="1" as="geometry"/>
                </mxCell>
                <mxCell id="4" value="Otwarcie pliku .NC" style="rounded=0;whiteSpace=wrap;html=1;fillColor=#f5f5f5;strokeColor=#666666;fontColor=#333333;fontSize=15;fontFamily=Garamond;" parent="1" vertex="1">
                    <mxGeometry x="325" y="100" width="120" height="60" as="geometry"/>
                </mxCell>
                <mxCell id="13" style="edgeStyle=none;html=1;entryX=0.5;entryY=0;entryDx=0;entryDy=0;strokeColor=#000000;fontFamily=Garamond;fontSize=15;" parent="1" source="9" target="12" edge="1">
                    <mxGeometry relative="1" as="geometry"/>
                </mxCell>
                <mxCell id="16" value="tak" style="edgeLabel;html=1;align=center;verticalAlign=middle;resizable=0;points=[];labelBackgroundColor=none;fontColor=#000000;fontSize=15;fontFamily=Garamond;" parent="13" vertex="1" connectable="0">
                    <mxGeometry x="0.4136" y="4" relative="1" as="geometry">
                        <mxPoint x="13" y="-13" as="offset"/>
                    </mxGeometry>
                </mxCell>
                <mxCell id="25" style="edgeStyle=none;html=1;strokeColor=#000000;fontColor=#000000;entryX=0;entryY=0.5;entryDx=0;entryDy=0;fontFamily=Garamond;fontSize=15;" parent="1" source="9" target="36" edge="1">
                    <mxGeometry relative="1" as="geometry">
                        <mxPoint x="570" y="365" as="targetPoint"/>
                    </mxGeometry>
                </mxCell>
                <mxCell id="26" value="nie" style="edgeLabel;html=1;align=center;verticalAlign=middle;resizable=0;points=[];fontColor=#000000;labelBackgroundColor=none;fontSize=15;fontFamily=Garamond;" parent="25" vertex="1" connectable="0">
                    <mxGeometry x="-0.6372" y="-2" relative="1" as="geometry">
                        <mxPoint x="-9" y="13" as="offset"/>
                    </mxGeometry>
                </mxCell>
                <mxCell id="9" value="&lt;span style=&quot;color: rgb(51, 51, 51); font-size: 15px;&quot;&gt;Czy w linijce znajduje &lt;br style=&quot;font-size: 15px;&quot;&gt;się deklaracja detalu?&lt;/span&gt;" style="rhombus;whiteSpace=wrap;html=1;fillColor=#E6E6E6;strokeColor=#000000;fontSize=15;fontFamily=Garamond;dashed=1;" parent="1" vertex="1">
                    <mxGeometry x="300" y="300" width="170" height="130" as="geometry"/>
                </mxCell>
                <mxCell id="15" style="edgeStyle=none;html=1;strokeColor=#000000;fontFamily=Garamond;fontSize=15;" parent="1" source="12" target="14" edge="1">
                    <mxGeometry relative="1" as="geometry"/>
                </mxCell>
                <mxCell id="12" value="Odczytanie nazwy detalu przy pomocy wyrażenia regularnego" style="rounded=0;whiteSpace=wrap;html=1;fillColor=#f5f5f5;strokeColor=#666666;fontColor=#333333;fontSize=15;fontFamily=Garamond;" parent="1" vertex="1">
                    <mxGeometry x="325" y="449" width="115" height="90" as="geometry"/>
                </mxCell>
                <mxCell id="18" value="" style="edgeStyle=none;html=1;strokeColor=#000000;fontColor=#000000;fontFamily=Garamond;fontSize=15;" parent="1" source="14" target="17" edge="1">
                    <mxGeometry relative="1" as="geometry"/>
                </mxCell>
                <mxCell id="19" value="tak" style="edgeLabel;html=1;align=center;verticalAlign=middle;resizable=0;points=[];fontColor=#000000;labelBackgroundColor=none;fontSize=15;fontFamily=Garamond;" parent="18" vertex="1" connectable="0">
                    <mxGeometry x="-0.6" y="2" relative="1" as="geometry">
                        <mxPoint x="13" y="-2" as="offset"/>
                    </mxGeometry>
                </mxCell>
                <mxCell id="21" style="edgeStyle=none;html=1;strokeColor=#000000;fontColor=#000000;fontFamily=Garamond;fontSize=15;" parent="1" source="14" target="20" edge="1">
                    <mxGeometry relative="1" as="geometry"/>
                </mxCell>
                <mxCell id="14" value="&lt;span style=&quot;color: rgb(51, 51, 51); font-size: 15px;&quot;&gt;Czy ta nazwa &lt;br style=&quot;font-size: 15px;&quot;&gt;wcześniej wystąpiła?&lt;/span&gt;" style="rhombus;whiteSpace=wrap;html=1;fillColor=#E6E6E6;strokeColor=#000000;fontSize=15;fontFamily=Garamond;dashed=1;" parent="1" vertex="1">
                    <mxGeometry x="300" y="550" width="170" height="130" as="geometry"/>
                </mxCell>
                <mxCell id="23" style="edgeStyle=none;html=1;strokeColor=#000000;fontColor=#000000;fontFamily=Garamond;fontSize=15;" parent="1" source="17" target="22" edge="1">
                    <mxGeometry relative="1" as="geometry"/>
                </mxCell>
                <mxCell id="17" value="Dodanie numeru wystąpienia detalu do nowej nazwy" style="rounded=0;whiteSpace=wrap;html=1;fillColor=#f5f5f5;strokeColor=#666666;fontColor=#333333;fontSize=15;fontFamily=Garamond;" parent="1" vertex="1">
                    <mxGeometry x="325" y="710" width="120" height="60" as="geometry"/>
                </mxCell>
                <mxCell id="24" style="edgeStyle=none;html=1;entryX=0.5;entryY=0;entryDx=0;entryDy=0;strokeColor=#000000;fontColor=#000000;fontFamily=Garamond;fontSize=15;" parent="1" source="20" target="22" edge="1">
                    <mxGeometry relative="1" as="geometry">
                        <Array as="points">
                            <mxPoint x="550" y="780"/>
                            <mxPoint x="385" y="780"/>
                        </Array>
                    </mxGeometry>
                </mxCell>
                <mxCell id="20" value="Dodanie indeksu &quot;001&quot; do nowej nazwy detalu" style="rounded=0;whiteSpace=wrap;html=1;fillColor=#f5f5f5;strokeColor=#666666;fontColor=#333333;fontSize=15;fontFamily=Garamond;" parent="1" vertex="1">
                    <mxGeometry x="490" y="585" width="120" height="60" as="geometry"/>
                </mxCell>
                <mxCell id="28" style="edgeStyle=none;html=1;entryX=0.5;entryY=0;entryDx=0;entryDy=0;strokeColor=#000000;fontColor=#000000;fontFamily=Garamond;fontSize=15;" parent="1" source="22" target="27" edge="1">
                    <mxGeometry relative="1" as="geometry"/>
                </mxCell>
                <mxCell id="22" value="Zapisanie nowej nazwy detalu" style="rounded=0;whiteSpace=wrap;html=1;fillColor=#f5f5f5;strokeColor=#666666;fontColor=#333333;fontSize=15;fontFamily=Garamond;" parent="1" vertex="1">
                    <mxGeometry x="325" y="800" width="120" height="60" as="geometry"/>
                </mxCell>
                <mxCell id="30" style="edgeStyle=none;html=1;entryX=0.5;entryY=0;entryDx=0;entryDy=0;strokeColor=#000000;fontColor=#000000;fontFamily=Garamond;fontSize=15;" parent="1" source="27" target="29" edge="1">
                    <mxGeometry relative="1" as="geometry"/>
                </mxCell>
                <mxCell id="31" value="tak" style="edgeLabel;html=1;align=center;verticalAlign=middle;resizable=0;points=[];fontColor=#000000;labelBackgroundColor=none;fontSize=15;fontFamily=Garamond;" parent="30" vertex="1" connectable="0">
                    <mxGeometry x="-0.4333" y="1" relative="1" as="geometry">
                        <mxPoint x="14" y="-7" as="offset"/>
                    </mxGeometry>
                </mxCell>
                <mxCell id="32" style="edgeStyle=none;html=1;strokeColor=#000000;fontColor=#000000;exitX=0;exitY=0.5;exitDx=0;exitDy=0;entryX=0.5;entryY=0;entryDx=0;entryDy=0;fontFamily=Garamond;fontSize=15;" parent="1" source="27" target="9" edge="1">
                    <mxGeometry relative="1" as="geometry">
                        <mxPoint x="270" y="390" as="targetPoint"/>
                        <Array as="points">
                            <mxPoint x="270" y="955"/>
                            <mxPoint x="270" y="270"/>
                            <mxPoint x="385" y="270"/>
                        </Array>
                    </mxGeometry>
                </mxCell>
                <mxCell id="33" value="nie" style="edgeLabel;html=1;align=center;verticalAlign=middle;resizable=0;points=[];fontColor=#000000;labelBackgroundColor=none;fontSize=15;fontFamily=Garamond;" parent="32" vertex="1" connectable="0">
                    <mxGeometry x="-0.9704" y="3" relative="1" as="geometry">
                        <mxPoint x="17" y="12" as="offset"/>
                    </mxGeometry>
                </mxCell>
                <mxCell id="27" value="&lt;font color=&quot;#333333&quot; style=&quot;font-size: 15px;&quot;&gt;Czy ukończono &lt;br style=&quot;font-size: 15px;&quot;&gt;odczyt ścieżki dla danego elementu?&lt;/font&gt;" style="rhombus;whiteSpace=wrap;html=1;fillColor=#E6E6E6;strokeColor=#000000;fontSize=15;fontFamily=Garamond;dashed=1;" parent="1" vertex="1">
                    <mxGeometry x="300" y="890" width="170" height="130" as="geometry"/>
                </mxCell>
                <mxCell id="34" style="edgeStyle=none;html=1;strokeColor=#000000;fontColor=#000000;endArrow=none;endFill=0;fontFamily=Garamond;fontSize=15;" parent="1" source="29" edge="1">
                    <mxGeometry relative="1" as="geometry">
                        <mxPoint x="270" y="930" as="targetPoint"/>
                        <Array as="points">
                            <mxPoint x="385" y="1130"/>
                            <mxPoint x="270" y="1130"/>
                        </Array>
                    </mxGeometry>
                </mxCell>
                <mxCell id="29" value="Przypisanie ścieżki wraz z nazwą do wektora elementów" style="rounded=0;whiteSpace=wrap;html=1;fillColor=#f5f5f5;strokeColor=#666666;fontColor=#333333;fontFamily=Garamond;fontSize=15;" parent="1" vertex="1">
                    <mxGeometry x="325" y="1050" width="120" height="60" as="geometry"/>
                </mxCell>
                <mxCell id="35" value="nie" style="edgeLabel;html=1;align=center;verticalAlign=middle;resizable=0;points=[];fontColor=#000000;labelBackgroundColor=none;fontSize=15;fontFamily=Garamond;" parent="1" connectable="0" vertex="1">
                    <mxGeometry x="279.99869565217386" y="1160" as="geometry">
                        <mxPoint x="190" y="-531" as="offset"/>
                    </mxGeometry>
                </mxCell>
                <mxCell id="39" style="edgeStyle=none;html=1;entryX=0;entryY=0.5;entryDx=0;entryDy=0;strokeColor=#000000;fontColor=#000000;endArrow=classic;endFill=1;fontFamily=Garamond;fontSize=15;" parent="1" source="36" target="37" edge="1">
                    <mxGeometry relative="1" as="geometry"/>
                </mxCell>
                <mxCell id="36" value="Przeszukanie linii w kontekście instrukcji G-code" style="rounded=0;whiteSpace=wrap;html=1;fillColor=#f5f5f5;strokeColor=#666666;fontColor=#333333;fontSize=15;fontFamily=Garamond;" parent="1" vertex="1">
                    <mxGeometry x="490" y="335" width="120" height="60" as="geometry"/>
                </mxCell>
                <mxCell id="40" style="edgeStyle=none;html=1;entryX=0.5;entryY=0;entryDx=0;entryDy=0;strokeColor=#000000;fontColor=#000000;endArrow=classic;endFill=1;exitX=1;exitY=0.5;exitDx=0;exitDy=0;fontFamily=Garamond;fontSize=15;" parent="1" source="37" target="9" edge="1">
                    <mxGeometry relative="1" as="geometry">
                        <Array as="points">
                            <mxPoint x="820" y="365"/>
                            <mxPoint x="820" y="270"/>
                            <mxPoint x="385" y="270"/>
                        </Array>
                    </mxGeometry>
                </mxCell>
                <mxCell id="41" value="nie" style="edgeLabel;html=1;align=center;verticalAlign=middle;resizable=0;points=[];fontColor=#000000;labelBackgroundColor=none;fontSize=15;fontFamily=Garamond;" parent="40" vertex="1" connectable="0">
                    <mxGeometry x="-0.9543" y="-1" relative="1" as="geometry">
                        <mxPoint x="-11" y="14" as="offset"/>
                    </mxGeometry>
                </mxCell>
                <mxCell id="43" style="edgeStyle=none;html=1;entryX=0.5;entryY=0;entryDx=0;entryDy=0;strokeColor=#000000;fontColor=none;endArrow=classic;endFill=1;exitX=0.5;exitY=1;exitDx=0;exitDy=0;fontFamily=Garamond;fontSize=15;" parent="1" target="42" edge="1">
                    <mxGeometry relative="1" as="geometry">
                        <mxPoint x="725" y="430" as="sourcePoint"/>
                    </mxGeometry>
                </mxCell>
                <mxCell id="45" value="tak" style="edgeLabel;html=1;align=center;verticalAlign=middle;resizable=0;points=[];fontColor=none;labelBackgroundColor=none;fontSize=15;fontFamily=Garamond;" parent="43" vertex="1" connectable="0">
                    <mxGeometry x="-0.5333" y="-2" relative="1" as="geometry">
                        <mxPoint x="17" y="-7" as="offset"/>
                    </mxGeometry>
                </mxCell>
                <mxCell id="37" value="&lt;font color=&quot;#333333&quot; style=&quot;font-size: 15px;&quot;&gt;Czy w linii znajduje &lt;br style=&quot;font-size: 15px;&quot;&gt;się instrukcja dotycząca ruchu wycinarki &lt;br style=&quot;font-size: 15px;&quot;&gt;laserowej&lt;/font&gt;" style="rhombus;whiteSpace=wrap;html=1;fillColor=#E6E6E6;strokeColor=#000000;fontSize=15;fontFamily=Garamond;dashed=1;" parent="1" vertex="1">
                    <mxGeometry x="640" y="300" width="170" height="130" as="geometry"/>
                </mxCell>
                <mxCell id="46" value="" style="edgeStyle=none;html=1;strokeColor=#000000;fontColor=none;endArrow=classic;endFill=1;fontFamily=Garamond;fontSize=15;" parent="1" source="42" edge="1">
                    <mxGeometry relative="1" as="geometry">
                        <mxPoint x="810" y="505" as="targetPoint"/>
                    </mxGeometry>
                </mxCell>
                <mxCell id="57" value="" style="edgeStyle=none;html=1;strokeColor=#000000;fontColor=none;endArrow=classic;endFill=1;fontFamily=Garamond;fontSize=15;" parent="1" source="42" target="56" edge="1">
                    <mxGeometry relative="1" as="geometry"/>
                </mxCell>
                <mxCell id="42" value="&lt;font color=&quot;#333333&quot; style=&quot;font-size: 15px;&quot;&gt;Czy jest to &lt;br style=&quot;font-size: 15px;&quot;&gt;komenda M10?&lt;/font&gt;" style="rhombus;whiteSpace=wrap;html=1;fillColor=#E6E6E6;strokeColor=#000000;fontSize=15;fontFamily=Garamond;dashed=1;" parent="1" vertex="1">
                    <mxGeometry x="660" y="460" width="130" height="90" as="geometry"/>
                </mxCell>
                <mxCell id="48" value="" style="edgeStyle=none;html=1;strokeColor=#000000;fontColor=none;endArrow=classic;endFill=1;entryX=0;entryY=0.5;entryDx=0;entryDy=0;exitX=0.5;exitY=0;exitDx=0;exitDy=0;fontFamily=Garamond;fontSize=15;" parent="1" source="44" target="47" edge="1">
                    <mxGeometry relative="1" as="geometry">
                        <Array as="points">
                            <mxPoint x="875" y="415"/>
                        </Array>
                    </mxGeometry>
                </mxCell>
                <mxCell id="61" value="" style="edgeStyle=none;html=1;strokeColor=#000000;fontColor=none;endArrow=classic;endFill=1;entryX=0.5;entryY=0;entryDx=0;entryDy=0;fontFamily=Garamond;fontSize=15;" parent="1" source="44" target="60" edge="1">
                    <mxGeometry relative="1" as="geometry">
                        <Array as="points">
                            <mxPoint x="875" y="680"/>
                            <mxPoint x="655" y="680"/>
                        </Array>
                    </mxGeometry>
                </mxCell>
                <mxCell id="64" value="tak" style="edgeLabel;html=1;align=center;verticalAlign=middle;resizable=0;points=[];fontColor=none;labelBackgroundColor=none;fontSize=15;fontFamily=Garamond;" parent="61" vertex="1" connectable="0">
                    <mxGeometry x="-0.9085" relative="1" as="geometry">
                        <mxPoint x="15" y="-6" as="offset"/>
                    </mxGeometry>
                </mxCell>
                <mxCell id="44" value="&lt;font color=&quot;#333333&quot; style=&quot;font-size: 15px;&quot;&gt;Czy jest to &lt;br style=&quot;font-size: 15px;&quot;&gt;komenda M11?&lt;/font&gt;" style="rhombus;whiteSpace=wrap;html=1;fillColor=#E6E6E6;strokeColor=#000000;fontSize=15;fontFamily=Garamond;dashed=1;" parent="1" vertex="1">
                    <mxGeometry x="810" y="460" width="130" height="90" as="geometry"/>
                </mxCell>
                <mxCell id="52" style="edgeStyle=none;html=1;entryX=0.5;entryY=0;entryDx=0;entryDy=0;strokeColor=#000000;fontColor=none;endArrow=classic;endFill=1;fontFamily=Garamond;fontSize=15;" parent="1" source="47" target="9" edge="1">
                    <mxGeometry relative="1" as="geometry">
                        <Array as="points">
                            <mxPoint x="955" y="270"/>
                            <mxPoint x="385" y="270"/>
                        </Array>
                    </mxGeometry>
                </mxCell>
                <mxCell id="91" style="edgeStyle=none;html=1;entryX=0.5;entryY=0;entryDx=0;entryDy=0;strokeColor=#000000;fontSize=15;fontFamily=Garamond;" parent="1" source="47" target="86" edge="1">
                    <mxGeometry relative="1" as="geometry"/>
                </mxCell>
                <mxCell id="47" value="&lt;font color=&quot;#333333&quot; style=&quot;font-size: 15px;&quot;&gt;Czy flaga &lt;br style=&quot;font-size: 15px;&quot;&gt;laser_on jest &lt;br style=&quot;font-size: 15px;&quot;&gt;ustawiona &lt;br style=&quot;font-size: 15px;&quot;&gt;na True?&lt;br style=&quot;font-size: 15px;&quot;&gt;&lt;/font&gt;" style="rhombus;whiteSpace=wrap;html=1;fillColor=#E6E6E6;strokeColor=#000000;fontSize=15;fontFamily=Garamond;dashed=1;" parent="1" vertex="1">
                    <mxGeometry x="890" y="370" width="130" height="90" as="geometry"/>
                </mxCell>
                <mxCell id="49" value="nie" style="edgeLabel;html=1;align=center;verticalAlign=middle;resizable=0;points=[];fontColor=#000000;labelBackgroundColor=none;fontSize=15;fontFamily=Garamond;" parent="1" vertex="1" connectable="0">
                    <mxGeometry x="798.0000000000001" y="494" as="geometry"/>
                </mxCell>
                <mxCell id="51" value="nie" style="edgeLabel;html=1;align=center;verticalAlign=middle;resizable=0;points=[];fontColor=#000000;labelBackgroundColor=none;fontSize=15;fontFamily=Garamond;" parent="1" vertex="1" connectable="0">
                    <mxGeometry x="890.0000000000001" y="450" as="geometry"/>
                </mxCell>
                <mxCell id="55" value="nie" style="edgeLabel;html=1;align=center;verticalAlign=middle;resizable=0;points=[];fontColor=#000000;labelBackgroundColor=none;fontSize=15;fontFamily=Garamond;" parent="1" vertex="1" connectable="0">
                    <mxGeometry x="480" y="220" as="geometry">
                        <mxPoint x="-1" y="-15" as="offset"/>
                    </mxGeometry>
                </mxCell>
                <mxCell id="99" style="edgeStyle=none;html=1;strokeColor=#000000;fontSize=15;endArrow=none;endFill=0;fontFamily=Garamond;" parent="1" source="56" edge="1">
                    <mxGeometry relative="1" as="geometry">
                        <mxPoint x="820" y="340" as="targetPoint"/>
                        <Array as="points">
                            <mxPoint x="650" y="610"/>
                            <mxPoint x="650" y="450"/>
                            <mxPoint x="720" y="450"/>
                            <mxPoint x="720" y="440"/>
                            <mxPoint x="730" y="440"/>
                            <mxPoint x="730" y="450"/>
                            <mxPoint x="820" y="450"/>
                        </Array>
                    </mxGeometry>
                </mxCell>
                <mxCell id="56" value="Ustawienie flagi laser_on na True" style="rounded=0;whiteSpace=wrap;html=1;fillColor=#f5f5f5;strokeColor=#666666;fontColor=#333333;fontSize=15;fontFamily=Garamond;" parent="1" vertex="1">
                    <mxGeometry x="672.5" y="580" width="105" height="60" as="geometry"/>
                </mxCell>
                <mxCell id="69" value="" style="edgeStyle=none;html=1;strokeColor=#000000;fontColor=none;endArrow=classic;endFill=1;fontFamily=Garamond;fontSize=15;" parent="1" source="60" target="68" edge="1">
                    <mxGeometry relative="1" as="geometry"/>
                </mxCell>
                <mxCell id="74" style="edgeStyle=none;html=1;strokeColor=#000000;exitX=1;exitY=0.5;exitDx=0;exitDy=0;entryX=0.5;entryY=0;entryDx=0;entryDy=0;fontFamily=Garamond;fontSize=15;" parent="1" source="60" target="71" edge="1">
                    <mxGeometry relative="1" as="geometry">
                        <mxPoint x="1000" y="1010" as="targetPoint"/>
                        <Array as="points">
                            <mxPoint x="570" y="740"/>
                            <mxPoint x="570" y="890"/>
                            <mxPoint x="580" y="890"/>
                            <mxPoint x="580" y="910"/>
                            <mxPoint x="570" y="910"/>
                            <mxPoint x="520" y="910"/>
                            <mxPoint x="520" y="1010"/>
                        </Array>
                    </mxGeometry>
                </mxCell>
                <mxCell id="60" value="&lt;font color=&quot;#333333&quot; style=&quot;font-size: 15px;&quot;&gt;Czy flaga laser_on=True &lt;br style=&quot;font-size: 15px;&quot;&gt;oraz odczytano ścieżkę?&lt;/font&gt;" style="rhombus;whiteSpace=wrap;html=1;fillColor=#E6E6E6;strokeColor=#000000;fontSize=15;fontFamily=Garamond;dashed=1;" parent="1" vertex="1">
                    <mxGeometry x="590" y="695" width="130" height="90" as="geometry"/>
                </mxCell>
                <mxCell id="63" style="edgeStyle=none;html=1;entryX=0.5;entryY=0;entryDx=0;entryDy=0;strokeColor=#000000;fontColor=none;endArrow=classic;endFill=1;exitX=0.5;exitY=1;exitDx=0;exitDy=0;fontFamily=Garamond;fontSize=15;" parent="1" source="68" target="29" edge="1">
                    <mxGeometry relative="1" as="geometry">
                        <mxPoint x="868.1496062992123" y="784.4881889763781" as="sourcePoint"/>
                        <mxPoint x="385" y="1050" as="targetPoint"/>
                        <Array as="points">
                            <mxPoint x="655" y="900"/>
                            <mxPoint x="490" y="900"/>
                            <mxPoint x="490" y="1030"/>
                            <mxPoint x="385" y="1030"/>
                        </Array>
                    </mxGeometry>
                </mxCell>
                <mxCell id="65" value="tak" style="edgeLabel;html=1;align=center;verticalAlign=middle;resizable=0;points=[];fontColor=none;labelBackgroundColor=none;fontSize=15;fontFamily=Garamond;" parent="1" vertex="1" connectable="0">
                    <mxGeometry x="910" y="568" as="geometry">
                        <mxPoint x="-174" y="-9" as="offset"/>
                    </mxGeometry>
                </mxCell>
                <mxCell id="66" value="tak" style="edgeLabel;html=1;align=center;verticalAlign=middle;resizable=0;points=[];fontColor=none;labelBackgroundColor=none;fontSize=15;fontFamily=Garamond;" parent="1" vertex="1" connectable="0">
                    <mxGeometry x="720" y="539" as="geometry">
                        <mxPoint x="-13" y="252" as="offset"/>
                    </mxGeometry>
                </mxCell>
                <mxCell id="68" value="Ustawienie flagi laser_on=False" style="rounded=0;whiteSpace=wrap;html=1;fillColor=#f5f5f5;strokeColor=#666666;fontColor=#333333;fontSize=15;fontFamily=Garamond;" parent="1" vertex="1">
                    <mxGeometry x="595" y="820" width="120" height="60" as="geometry"/>
                </mxCell>
                <mxCell id="70" value="Przypisanie ścieżki wraz z nazwą do wektora elementów" style="rounded=0;whiteSpace=wrap;html=1;fillColor=#f5f5f5;strokeColor=#666666;fontColor=#333333;fontSize=15;fontFamily=Garamond;" parent="1" vertex="1">
                    <mxGeometry x="325" y="1050" width="120" height="70" as="geometry"/>
                </mxCell>
                <mxCell id="75" style="edgeStyle=none;html=1;strokeColor=#000000;endArrow=none;endFill=0;fontFamily=Garamond;fontSize=15;" parent="1" source="71" edge="1">
                    <mxGeometry relative="1" as="geometry">
                        <mxPoint x="340" y="1130" as="targetPoint"/>
                    </mxGeometry>
                </mxCell>
                <mxCell id="71" value="Ustawienie flagi laser_on=False" style="rounded=0;whiteSpace=wrap;html=1;fillColor=#f5f5f5;strokeColor=#666666;fontColor=#333333;fontSize=15;fontFamily=Garamond;" parent="1" vertex="1">
                    <mxGeometry x="460" y="1100" width="120" height="60" as="geometry"/>
                </mxCell>
                <mxCell id="78" value="nie" style="edgeLabel;html=1;align=center;verticalAlign=middle;resizable=0;points=[];fontColor=#000000;labelBackgroundColor=none;fontSize=15;fontFamily=Garamond;" parent="1" vertex="1" connectable="0">
                    <mxGeometry x="580.0000000000001" y="730" as="geometry"/>
                </mxCell>
                <mxCell id="84" value="" style="edgeStyle=none;html=1;strokeColor=#000000;fontSize=15;fontFamily=Garamond;" parent="1" source="82" target="9" edge="1">
                    <mxGeometry relative="1" as="geometry"/>
                </mxCell>
                <mxCell id="127" value="" style="edgeStyle=none;html=1;strokeColor=#000000;fontSize=15;endArrow=classic;endFill=1;fontFamily=Garamond;" parent="1" source="82" target="126" edge="1">
                    <mxGeometry relative="1" as="geometry"/>
                </mxCell>
                <mxCell id="82" value="&lt;font color=&quot;#333333&quot; style=&quot;font-size: 15px;&quot;&gt;Czy odczytano &lt;br style=&quot;font-size: 15px;&quot;&gt;jakąś linijke?&lt;/font&gt;" style="rhombus;whiteSpace=wrap;html=1;fillColor=#E6E6E6;strokeColor=#000000;fontSize=15;fontFamily=Garamond;dashed=1;" parent="1" vertex="1">
                    <mxGeometry x="300" y="180" width="170" height="70" as="geometry"/>
                </mxCell>
                <mxCell id="85" value="tak" style="edgeLabel;html=1;align=center;verticalAlign=middle;resizable=0;points=[];labelBackgroundColor=none;fontColor=#000000;fontSize=15;fontFamily=Garamond;" parent="1" vertex="1" connectable="0">
                    <mxGeometry x="409.9983723654785" y="444.9961991541649" as="geometry">
                        <mxPoint x="-10" y="-191" as="offset"/>
                    </mxGeometry>
                </mxCell>
                <mxCell id="94" style="edgeStyle=none;html=1;strokeColor=#000000;fontSize=15;fontFamily=Garamond;" parent="1" source="86" target="93" edge="1">
                    <mxGeometry relative="1" as="geometry">
                        <Array as="points"/>
                    </mxGeometry>
                </mxCell>
                <mxCell id="97" style="edgeStyle=none;html=1;entryX=0.5;entryY=0;entryDx=0;entryDy=0;strokeColor=#000000;fontSize=15;fontFamily=Garamond;" parent="1" source="86" target="96" edge="1">
                    <mxGeometry relative="1" as="geometry"/>
                </mxCell>
                <mxCell id="86" value="&lt;font color=&quot;#333333&quot; style=&quot;font-size: 15px;&quot;&gt;Czy jest to &lt;br style=&quot;font-size: 15px;&quot;&gt;komenda G01?&lt;br style=&quot;font-size: 15px;&quot;&gt;&lt;/font&gt;" style="rhombus;whiteSpace=wrap;html=1;fillColor=#E6E6E6;strokeColor=#000000;fontSize=15;fontFamily=Garamond;dashed=1;" parent="1" vertex="1">
                    <mxGeometry x="890" y="695" width="130" height="90" as="geometry"/>
                </mxCell>
                <mxCell id="92" value="tak" style="edgeLabel;html=1;align=center;verticalAlign=middle;resizable=0;points=[];fontColor=none;labelBackgroundColor=none;fontSize=15;fontFamily=Garamond;" parent="1" connectable="0" vertex="1">
                    <mxGeometry x="970" y="469.9999999999999" as="geometry"/>
                </mxCell>
                <mxCell id="100" style="edgeStyle=none;html=1;entryX=0;entryY=0.5;entryDx=0;entryDy=0;strokeColor=#000000;fontSize=15;endArrow=none;endFill=0;exitX=0;exitY=0.5;exitDx=0;exitDy=0;fontFamily=Garamond;" parent="1" source="93" target="37" edge="1">
                    <mxGeometry relative="1" as="geometry">
                        <Array as="points">
                            <mxPoint x="730" y="740"/>
                            <mxPoint x="730" y="685"/>
                            <mxPoint x="741" y="685"/>
                            <mxPoint x="741" y="674"/>
                            <mxPoint x="730" y="675"/>
                            <mxPoint x="730" y="650"/>
                            <mxPoint x="620" y="650"/>
                            <mxPoint x="620" y="365"/>
                        </Array>
                    </mxGeometry>
                </mxCell>
                <mxCell id="93" value="Dodanie punktu&lt;br style=&quot;font-size: 15px;&quot;&gt;do ścieżki" style="rounded=0;whiteSpace=wrap;html=1;fillColor=#f5f5f5;strokeColor=#666666;fontColor=#333333;fontSize=15;fontFamily=Garamond;" parent="1" vertex="1">
                    <mxGeometry x="750" y="710" width="120" height="60" as="geometry"/>
                </mxCell>
                <mxCell id="95" value="tak" style="edgeLabel;html=1;align=center;verticalAlign=middle;resizable=0;points=[];fontColor=none;labelBackgroundColor=none;fontSize=15;fontFamily=Garamond;" parent="1" vertex="1" connectable="0">
                    <mxGeometry x="900" y="500" as="geometry">
                        <mxPoint x="-13" y="252" as="offset"/>
                    </mxGeometry>
                </mxCell>
                <mxCell id="103" style="edgeStyle=none;html=1;strokeColor=#000000;fontSize=15;endArrow=none;endFill=0;fontFamily=Garamond;" parent="1" source="96" edge="1">
                    <mxGeometry relative="1" as="geometry">
                        <mxPoint x="730" y="710" as="targetPoint"/>
                        <Array as="points">
                            <mxPoint x="810" y="865"/>
                            <mxPoint x="810" y="830"/>
                            <mxPoint x="730" y="830"/>
                        </Array>
                    </mxGeometry>
                </mxCell>
                <mxCell id="107" value="" style="edgeStyle=none;html=1;strokeColor=#000000;fontSize=15;endArrow=classic;endFill=1;fontFamily=Garamond;" parent="1" source="96" target="106" edge="1">
                    <mxGeometry relative="1" as="geometry"/>
                </mxCell>
                <mxCell id="96" value="&lt;font color=&quot;#333333&quot; style=&quot;font-size: 15px;&quot;&gt;Czy jest to &lt;br style=&quot;font-size: 15px;&quot;&gt;komenda G02 lub G03?&lt;br style=&quot;font-size: 15px;&quot;&gt;&lt;/font&gt;" style="rhombus;whiteSpace=wrap;html=1;fillColor=#E6E6E6;strokeColor=#000000;fontSize=15;fontFamily=Garamond;dashed=1;" parent="1" vertex="1">
                    <mxGeometry x="890" y="820" width="130" height="90" as="geometry"/>
                </mxCell>
                <mxCell id="101" value="nie" style="edgeLabel;html=1;align=center;verticalAlign=middle;resizable=0;points=[];fontColor=#000000;labelBackgroundColor=none;fontSize=15;fontFamily=Garamond;" parent="1" vertex="1" connectable="0">
                    <mxGeometry x="920.0000000000001" y="470" as="geometry">
                        <mxPoint x="58" y="319" as="offset"/>
                    </mxGeometry>
                </mxCell>
                <mxCell id="104" value="nie" style="edgeLabel;html=1;align=center;verticalAlign=middle;resizable=0;points=[];fontColor=#000000;labelBackgroundColor=none;fontSize=15;fontFamily=Garamond;" parent="1" connectable="0" vertex="1">
                    <mxGeometry x="820.0000000000001" y="530" as="geometry">
                        <mxPoint x="58" y="319" as="offset"/>
                    </mxGeometry>
                </mxCell>
                <mxCell id="113" value="" style="edgeStyle=none;html=1;strokeColor=#000000;fontSize=15;endArrow=classic;endFill=1;fontFamily=Garamond;" parent="1" source="106" target="109" edge="1">
                    <mxGeometry relative="1" as="geometry"/>
                </mxCell>
                <mxCell id="106" value="Przypisanie środka łuku, promienia, kąta początkowego i końcowego" style="rounded=0;whiteSpace=wrap;html=1;fillColor=#f5f5f5;strokeColor=#666666;fontColor=#333333;fontSize=15;fontFamily=Garamond;" parent="1" vertex="1">
                    <mxGeometry x="895" y="1070" width="120" height="90" as="geometry"/>
                </mxCell>
                <mxCell id="108" value="tak" style="edgeLabel;html=1;align=center;verticalAlign=middle;resizable=0;points=[];fontColor=none;labelBackgroundColor=none;fontSize=15;fontFamily=Garamond;" parent="1" vertex="1" connectable="0">
                    <mxGeometry x="990" y="660" as="geometry">
                        <mxPoint x="-13" y="252" as="offset"/>
                    </mxGeometry>
                </mxCell>
                <mxCell id="117" style="edgeStyle=none;html=1;entryX=0.5;entryY=1;entryDx=0;entryDy=0;strokeColor=#000000;fontSize=15;endArrow=classic;endFill=1;fontFamily=Garamond;" parent="1" source="109" target="111" edge="1">
                    <mxGeometry relative="1" as="geometry">
                        <Array as="points">
                            <mxPoint x="780" y="1080"/>
                            <mxPoint x="810" y="1080"/>
                        </Array>
                    </mxGeometry>
                </mxCell>
                <mxCell id="118" style="edgeStyle=none;html=1;entryX=0.5;entryY=1;entryDx=0;entryDy=0;strokeColor=#000000;fontSize=15;endArrow=classic;endFill=1;fontFamily=Garamond;" parent="1" source="109" target="112" edge="1">
                    <mxGeometry relative="1" as="geometry">
                        <Array as="points">
                            <mxPoint x="690" y="1080"/>
                            <mxPoint x="660" y="1080"/>
                        </Array>
                    </mxGeometry>
                </mxCell>
                <mxCell id="109" value="&lt;font color=&quot;#333333&quot; style=&quot;font-size: 15px;&quot;&gt;Czy jest to &lt;br style=&quot;font-size: 15px;&quot;&gt;komenda G02?&lt;br style=&quot;font-size: 15px;&quot;&gt;&lt;/font&gt;" style="rhombus;whiteSpace=wrap;html=1;fillColor=#E6E6E6;strokeColor=#000000;fontSize=15;fontFamily=Garamond;dashed=1;" parent="1" vertex="1">
                    <mxGeometry x="668" y="1070" width="130" height="90" as="geometry"/>
                </mxCell>
                <mxCell id="115" value="" style="edgeStyle=none;html=1;strokeColor=#000000;fontSize=15;endArrow=classic;endFill=1;fontFamily=Garamond;" parent="1" source="111" target="114" edge="1">
                    <mxGeometry relative="1" as="geometry"/>
                </mxCell>
                <mxCell id="111" value="Wygenerowanie łuku przeciwnie do wskazówek zegara" style="rounded=0;whiteSpace=wrap;html=1;fillColor=#f5f5f5;strokeColor=#666666;fontColor=#333333;fontSize=15;fontFamily=Garamond;" parent="1" vertex="1">
                    <mxGeometry x="750" y="980" width="120" height="80" as="geometry"/>
                </mxCell>
                <mxCell id="116" style="edgeStyle=none;html=1;entryX=0;entryY=0.5;entryDx=0;entryDy=0;strokeColor=#000000;fontSize=15;endArrow=classic;endFill=1;fontFamily=Garamond;" parent="1" source="112" target="114" edge="1">
                    <mxGeometry relative="1" as="geometry">
                        <Array as="points">
                            <mxPoint x="660" y="920"/>
                        </Array>
                    </mxGeometry>
                </mxCell>
                <mxCell id="112" value="Wygenerowanie łuku zgodnie ze wskazówkami zegara" style="rounded=0;whiteSpace=wrap;html=1;fillColor=#f5f5f5;strokeColor=#666666;fontColor=#333333;fontSize=15;fontFamily=Garamond;" parent="1" vertex="1">
                    <mxGeometry x="600" y="980" width="120" height="80" as="geometry"/>
                </mxCell>
                <mxCell id="123" style="edgeStyle=none;html=1;strokeColor=#000000;fontSize=15;endArrow=none;endFill=0;fontFamily=Garamond;" parent="1" source="114" edge="1">
                    <mxGeometry relative="1" as="geometry">
                        <mxPoint x="810" y="840" as="targetPoint"/>
                    </mxGeometry>
                </mxCell>
                <mxCell id="114" value="Dodanie punktu&lt;br style=&quot;font-size: 15px;&quot;&gt;do ścieżki" style="rounded=0;whiteSpace=wrap;html=1;fillColor=#f5f5f5;strokeColor=#666666;fontColor=#333333;fontSize=15;fontFamily=Garamond;" parent="1" vertex="1">
                    <mxGeometry x="750" y="890" width="120" height="60" as="geometry"/>
                </mxCell>
                <mxCell id="119" value="tak" style="edgeLabel;html=1;align=center;verticalAlign=middle;resizable=0;points=[];fontColor=none;labelBackgroundColor=none;fontSize=15;fontFamily=Garamond;" parent="1" vertex="1" connectable="0">
                    <mxGeometry x="690" y="840" as="geometry">
                        <mxPoint x="-13" y="252" as="offset"/>
                    </mxGeometry>
                </mxCell>
                <mxCell id="120" value="nie" style="edgeLabel;html=1;align=center;verticalAlign=middle;resizable=0;points=[];fontColor=#000000;labelBackgroundColor=none;fontSize=15;fontFamily=Garamond;" parent="1" connectable="0" vertex="1">
                    <mxGeometry x="730.0000000000001" y="773" as="geometry">
                        <mxPoint x="58" y="319" as="offset"/>
                    </mxGeometry>
                </mxCell>
                <mxCell id="130" value="" style="edgeStyle=none;html=1;strokeColor=#000000;fontSize=15;endArrow=classic;endFill=1;fontFamily=Garamond;" parent="1" source="126" target="129" edge="1">
                    <mxGeometry relative="1" as="geometry"/>
                </mxCell>
                <mxCell id="133" style="edgeStyle=none;html=1;entryX=0;entryY=0.5;entryDx=0;entryDy=0;strokeColor=#000000;fontSize=15;endArrow=classic;endFill=1;fontFamily=Garamond;" parent="1" source="126" target="2" edge="1">
                    <mxGeometry relative="1" as="geometry">
                        <Array as="points">
                            <mxPoint x="595" y="110"/>
                        </Array>
                    </mxGeometry>
                </mxCell>
                <mxCell id="126" value="&lt;font color=&quot;#333333&quot; style=&quot;font-size: 15px;&quot;&gt;Czy istnieje &lt;br style=&quot;font-size: 15px;&quot;&gt;niezapisana ścieżka w wektorze?&lt;/font&gt;" style="rhombus;whiteSpace=wrap;html=1;fillColor=#E6E6E6;strokeColor=#000000;fontSize=15;fontFamily=Garamond;dashed=1;" parent="1" vertex="1">
                    <mxGeometry x="510" y="180" width="170" height="70" as="geometry"/>
                </mxCell>
                <mxCell id="128" value="nie" style="edgeLabel;html=1;align=center;verticalAlign=middle;resizable=0;points=[];fontColor=#000000;labelBackgroundColor=none;fontSize=15;fontFamily=Garamond;" parent="1" vertex="1" connectable="0">
                    <mxGeometry x="980" y="380" as="geometry">
                        <mxPoint x="-1" y="-15" as="offset"/>
                    </mxGeometry>
                </mxCell>
                <mxCell id="134" style="edgeStyle=none;html=1;strokeColor=#000000;fontSize=15;endArrow=classic;endFill=1;fontFamily=Garamond;" parent="1" source="129" edge="1">
                    <mxGeometry relative="1" as="geometry">
                        <mxPoint x="839.9999999999998" y="109.99999999999989" as="targetPoint"/>
                        <Array as="points">
                            <mxPoint x="770" y="110"/>
                        </Array>
                    </mxGeometry>
                </mxCell>
                <mxCell id="129" value="Przypisanie ścieżki wraz z nazwą do wektora elementów" style="rounded=0;whiteSpace=wrap;html=1;fillColor=#f5f5f5;strokeColor=#666666;fontColor=#333333;fontSize=15;fontFamily=Garamond;" parent="1" vertex="1">
                    <mxGeometry x="710" y="177.5" width="120" height="75" as="geometry"/>
                </mxCell>
                <mxCell id="131" value="tak" style="edgeLabel;html=1;align=center;verticalAlign=middle;resizable=0;points=[];labelBackgroundColor=none;fontColor=#000000;fontSize=15;fontFamily=Garamond;" parent="1" vertex="1" connectable="0">
                    <mxGeometry x="699.9983723654784" y="394.9961991541649" as="geometry">
                        <mxPoint x="-10" y="-191" as="offset"/>
                    </mxGeometry>
                </mxCell>
                <mxCell id="132" value="nie" style="edgeLabel;html=1;align=center;verticalAlign=middle;resizable=0;points=[];fontColor=#000000;labelBackgroundColor=none;fontSize=15;fontFamily=Garamond;" parent="1" vertex="1" connectable="0">
                    <mxGeometry x="570" y="190" as="geometry">
                        <mxPoint x="-1" y="-15" as="offset"/>
                    </mxGeometry>
                </mxCell>
            </root>
        </mxGraphModel>
    </diagram>
</mxfile>